<svg width="800" height="800" viewBox="0 0 800 800" fill="none" xmlns="http://www.w3.org/2000/svg">
<g clip-path="url(#clip0_2077_4025)">
<path d="M390 66.6641V599.997M390 599.997V733.331M390 599.997L490 699.997M390 599.997L290 699.997M490 99.9974L390 199.997L290 99.9974" stroke="#E7CFFD" stroke-width="50" stroke-linecap="round"/>
<path d="M101.335 243.35L216.805 310.017M216.805 310.017L563.214 510.016M216.805 310.017L180.202 173.414M216.805 310.017L80.2021 346.619M563.214 510.016L678.684 576.683M563.214 510.016L699.817 473.413M563.214 510.016L599.817 646.619" stroke="#E7CFFD" stroke-width="50" stroke-linecap="round"/>
<path d="M688.667 249.35L573.197 316.017M573.197 316.017L226.788 516.016M573.197 316.017L609.8 179.414M573.197 316.017L709.8 352.619M226.788 516.016L111.318 582.683M226.788 516.016L90.1855 479.413M226.788 516.016L190.186 652.619" stroke="#E7CFFD" stroke-width="50" stroke-linecap="round"/>
<path d="M400 66.6641V599.997M400 599.997V733.331M400 599.997L500 699.997M400 599.997L300 699.997M500 99.9974L400 199.997L300 99.9974" stroke="#A552F3" stroke-width="50" stroke-linecap="round"/>
<path d="M111.335 233.35L226.805 300.017M226.805 300.017L573.214 500.016M226.805 300.017L190.202 163.414M226.805 300.017L90.2021 336.619M573.214 500.016L688.684 566.683M573.214 500.016L709.817 463.413M573.214 500.016L609.817 636.619" stroke="#A552F3" stroke-width="50" stroke-linecap="round"/>
<path d="M688.667 233.35L573.197 300.017M573.197 300.017L226.788 500.016M573.197 300.017L609.8 163.414M573.197 300.017L709.8 336.619M226.788 500.016L111.318 566.683M226.788 500.016L90.1855 463.413M226.788 500.016L190.186 636.619" stroke="#A552F3" stroke-width="50" stroke-linecap="round"/>
</g>
<defs>
<clipPath id="clip0_2077_4025">
<rect width="800" height="800" fill="white"/>
</clipPath>
</defs>
</svg>
